PathFileType	4	(X/Y/Z)	subject01_walk1.trc
DataRate	CameraRate	NumFrames	NumMarkers	Units	OrigDataRate	OrigDataStartFrame	OrigNumFrames
60.00	60.00	       8	41	mm	60.00	788	       900
Frame#	Time	R.ASIS			L.ASIS			V.Sacral			R.Thigh.Upper			R.Thigh.Front			R.Thigh.Rear			L.Thigh.Upper			L.Thigh.Front			L.Thigh.Rear			R.Shank.Upper			R.Shank.Front			R.Shank.Rear			L.Shank.Upper			L.Shank.Front			L.Shank.Rear			R.Heel			R.Midfoot.Sup			R.Midfoot.Lat			R.Toe.Tip			L.Heel			L.Midfoot.Sup			L.Midfoot.Lat			L.Toe.Tip			Sternum			R.Acromium			L.Acromium			R.Bicep			L.Bicep			R.Elbow			L.Elbow			R.Wrist.Med			R.Wrist.Lat			L.Wrist.Med			L.Wrist.Lat			R.Toe.Lat			R.Toe.Med			L.Toe.Lat			L.Toe.Med			R.Temple			L.Temple			Top.Head			
		X1	Y1	Z1	X2	Y2	Z2	X3	Y3	Z3	X4	Y4	Z4	X5	Y5	Z5	X6	Y6	Z6	X7	Y7	Z7	X8	Y8	Z8	X9	Y9	Z9	X10	Y10	Z10	X11	Y11	Z11	X12	Y12	Z12	X13	Y13	Z13	X14	Y14	Z14	X15	Y15	Z15	X16	Y16	Z16	X17	Y17	Z17	X18	Y18	Z18	X19	Y19	Z19	X20	Y20	Z20	X21	Y21	Z21	X22	Y22	Z22	X23	Y23	Z23	X24	Y24	Z24	X25	Y25	Z25	X26	Y26	Z26	X27	Y27	Z27	X28	Y28	Z28	X29	Y29	Z29	X30	Y30	Z30	X31	Y31	Z31	X32	Y32	Z32	X33	Y33	Z33	X34	Y34	Z34	X35	Y35	Z35	X36	Y36	Z36	X37	Y37	Z37	X38	Y38	Z38	X39	Y39	Z39	X40	Y40	Z40	X41	Y41	Z41	

788	13.117000	611.414860	1072.379640	161.680010	603.579470	1056.164430	-97.419070	408.283140	1058.398680	48.482790	623.337520	753.634770	210.635670	689.887020	704.881230	113.970290	638.677000	632.652160	198.822250	570.767150	751.375000	-161.519230	676.599430	724.085940	-123.352050	586.970640	642.080080	-155.884340	597.308900	456.922490	184.215000	670.752080	421.562500	127.986430	610.804930	370.503510	188.900880	528.337890	474.522250	-156.653120	525.707760	402.202970	-108.122940	479.878940	464.837680	-156.941770	526.520810	68.908290	96.721420	671.042050	79.129650	68.211020	659.115970	63.246130	175.690460	814.512880	52.038850	116.493480	203.437230	319.155580	-25.445600	291.513670	173.684400	-28.601510	257.658780	188.151750	-119.207980	320.643490	68.125180	-71.527350	622.459660	1375.790280	45.341010	523.360470	1445.471190	260.262700	559.694340	1496.819580	-152.547810	538.631040	1238.211790	294.779540	588.623170	1256.805180	-189.421690	498.528660	1133.295410	316.211150	543.385070	1161.026000	-232.387700	636.668580	900.813840	311.675720	591.684390	886.709290	357.407500	640.779050	927.906250	-189.734910	605.908750	924.560610	-256.045260	747.662170	39.597980	192.345340	758.929990	49.090410	83.162370	264.364200	122.215370	-136.238250	298.859340	106.989780	-39.531580	663.708860	1633.024170	139.436860	662.408080	1643.592040	0.849910	598.530580	1799.486330	86.157610	
789	13.133000	607.798650	1073.796750	163.923100	602.168700	1061.257690	-95.207840	406.907810	1061.498780	49.951330	615.326350	754.361570	212.695240	680.418330	703.953000	115.484960	627.670780	633.109560	200.164020	579.907590	755.543460	-159.866650	687.446840	731.785100	-122.337840	600.742430	647.360900	-155.206950	580.356320	456.968960	185.201570	654.993290	421.269290	129.002550	592.926030	370.430510	189.856630	547.490840	479.155210	-155.000750	546.641540	407.457980	-106.908970	499.934110	469.786530	-156.968810	507.374210	69.228720	96.546310	651.924440	79.039580	68.279040	639.917540	63.132610	175.806560	795.650090	51.627500	116.542020	224.053330	317.986420	-23.067630	318.179780	176.444210	-27.321520	284.266240	190.555500	-118.030180	350.425900	72.640520	-71.219960	620.486820	1379.694700	46.283900	523.510010	1448.973140	261.814450	556.313780	1499.798460	-151.879230	541.092290	1241.779910	296.133330	582.407530	1259.607540	-190.407790	502.479710	1136.321660	318.165440	536.347780	1164.382200	-231.999950	644.115540	906.117860	311.440520	599.750850	890.946290	357.581210	632.134890	931.033330	-190.745640	596.035340	927.410710	-257.091030	728.723390	39.684260	191.952190	739.864750	48.703780	83.204120	293.167020	125.426780	-135.345790	327.912780	110.179760	-38.826340	661.564210	1636.636840	140.445340	661.651670	1646.470090	1.272840	596.674560	1802.516720	87.153030	
790	13.150000	606.492430	1076.648440	166.976810	600.786680	1065.128780	-91.869130	405.274510	1064.439700	51.066920	606.297000	754.676210	212.408250	670.026730	702.556340	116.643930	615.631230	633.248600	201.718290	588.582400	759.761170	-158.480680	696.042600	739.949580	-120.079020	613.601680	652.097230	-154.499110	563.795650	457.554140	185.384380	638.585570	420.580380	130.746080	576.138430	370.477450	190.624890	565.631710	483.522710	-154.211440	564.948180	411.233550	-104.661810	519.109070	473.180690	-156.959950	488.224950	69.589620	96.354940	632.873410	79.019030	68.391310	620.883790	63.016200	175.855560	776.779050	51.297120	116.564680	245.589540	313.083740	-22.057460	346.238340	176.094130	-25.498960	312.868130	189.015460	-116.720070	383.209170	74.236390	-69.174540	619.205380	1381.569090	47.032780	523.435910	1452.673710	263.507350	552.297730	1502.065310	-151.504910	543.728760	1245.043210	297.216370	576.058590	1261.888790	-190.133390	505.954740	1139.277220	319.886750	528.738160	1167.851070	-232.445390	651.761110	912.239260	311.164670	608.434080	896.020570	357.095400	622.660830	932.995180	-193.101010	585.866210	929.912480	-257.992580	710.138980	39.225430	193.159870	720.649660	48.308240	83.241420	324.699310	124.568360	-133.704090	359.034240	110.432960	-36.943550	661.932310	1639.819210	141.206180	659.921570	1649.560180	1.531830	595.695620	1805.530030	87.538860	
791	13.167000	604.129330	1077.906130	169.554890	599.834590	1068.878300	-89.846690	403.398500	1067.109990	51.925110	597.312680	755.585390	214.825680	660.257510	701.481930	118.147380	602.729370	633.319950	203.239150	596.699040	764.031490	-157.473140	705.698730	747.878110	-118.221790	627.373780	657.239140	-153.749920	546.914920	457.525820	185.976240	622.869690	421.256040	132.175860	557.823000	371.522460	191.644610	584.804990	487.170290	-152.659740	585.526250	415.386200	-102.702410	537.122560	474.981200	-156.093750	469.089140	69.951560	96.189060	613.886230	79.048450	68.525990	602.031430	62.876450	175.790700	757.857480	50.945920	116.646250	268.073940	304.592100	-22.311600	375.476620	172.857960	-23.345180	343.299620	184.032240	-115.400720	418.618650	73.332990	-65.934090	618.089360	1384.012940	48.158660	523.507200	1456.336300	264.046630	549.137150	1503.637210	-150.046490	545.391970	1248.616580	298.987270	569.489260	1263.625370	-191.392000	508.999510	1142.080080	321.546170	520.629210	1170.777470	-233.628080	660.585880	918.472410	310.027340	617.813780	901.197690	357.836640	614.471310	935.375730	-194.790480	573.832210	932.451420	-258.573850	691.630980	38.892500	193.597400	701.345950	47.931630	83.302420	358.515200	120.202030	-131.555050	392.074250	108.197260	-34.228650	661.091250	1642.244020	141.129780	658.288090	1652.025760	1.766730	594.276550	1807.727540	87.602210	
792	13.183000	601.283330	1079.519040	172.560500	598.286440	1071.615480	-87.528910	401.286930	1069.410280	52.612910	587.634950	755.348820	216.607010	650.850950	700.246150	119.641290	589.780330	633.773860	203.668910	604.257200	768.269710	-156.706530	712.944090	754.861020	-114.900520	638.349370	662.366940	-152.858840	529.738650	458.327610	186.678380	606.098020	420.338810	133.017360	541.143680	371.646390	191.874080	600.066590	490.588230	-151.797090	604.214840	417.735350	-99.854000	553.930420	475.345760	-153.956500	450.057860	70.291800	96.088320	594.943850	79.103040	68.685860	583.299190	62.659130	175.645030	738.869750	50.540890	116.797760	291.606600	292.678650	-23.543540	405.867520	167.136730	-21.246560	375.521640	176.258500	-114.224340	456.416840	70.640940	-62.225250	616.686950	1386.335450	48.195580	523.761470	1458.690190	265.427700	545.463130	1505.210570	-149.602630	548.098630	1251.294070	299.401890	562.810180	1265.340940	-191.205170	511.665500	1144.594480	323.207240	512.273320	1172.477420	-232.490200	668.719300	924.847960	309.113070	626.442570	905.769530	356.911710	606.154720	937.909420	-196.185390	564.123230	934.229980	-258.524630	672.325620	38.836160	193.354570	682.118410	47.658340	83.458190	394.519500	113.248240	-129.312240	427.061920	104.047060	-31.260690	659.808290	1644.526610	141.631670	656.891110	1653.950680	2.216450	592.642030	1809.854610	87.479910	
793	13.200000	597.120790	1079.181030	174.385280	596.460210	1073.242070	-85.083700	398.969360	1071.291380	53.176510	577.933720	755.918210	216.281370	641.338010	700.215390	120.819650	577.809750	634.050600	204.603850	611.125920	772.259090	-155.854780	720.152160	761.908330	-112.164560	646.608640	667.888850	-150.653230	514.729800	458.908420	186.329510	590.237060	420.707700	133.690190	523.960450	372.047210	192.462890	616.662290	491.573490	-148.899700	623.161380	421.528780	-98.259360	569.670780	474.602540	-151.106380	431.225950	70.615730	96.065670	576.018310	79.154020	68.884770	564.570190	62.356750	175.524480	719.820980	50.109530	116.985730	316.393400	277.566890	-25.326970	437.629970	159.427640	-19.607510	409.516600	166.436540	-113.380070	496.507230	66.980280	-58.826190	615.469240	1387.575200	48.248090	523.169250	1460.983280	265.683720	542.598880	1506.307500	-149.926160	548.715520	1254.018800	301.328740	555.829900	1266.751950	-192.612140	513.990110	1146.677860	324.881500	503.442260	1174.921020	-232.363800	676.179500	930.904660	308.805050	635.604550	910.625240	355.984740	598.885990	940.218200	-197.653790	557.650760	936.046450	-260.341370	653.253600	38.812100	193.191330	663.048220	47.520780	83.733830	432.761470	104.774150	-127.477490	464.110780	98.545970	-28.685890	658.549870	1646.436160	141.014660	655.107180	1654.870850	2.239800	591.254390	1811.693600	86.666990	
794	13.217000	595.781800	1080.462650	176.148960	594.870480	1074.802980	-83.596670	396.513090	1072.755620	53.620960	568.912960	756.806880	215.625560	631.285160	699.189090	122.717390	564.359500	634.116460	204.860690	616.932740	775.756770	-154.590740	724.686160	767.439880	-107.237150	658.352780	672.326050	-150.315900	497.729610	459.967620	186.580180	573.750850	420.960300	135.394700	506.372960	372.981540	192.951290	631.130920	493.915860	-147.797680	642.686950	423.663940	-96.379000	584.602420	473.003660	-148.478880	412.565460	70.946010	96.084040	557.072940	79.165280	69.124590	545.736880	62.092470	175.544270	700.691530	49.679570	117.166980	342.715060	259.525570	-27.210160	471.267640	150.305570	-18.756910	445.176030	155.298650	-113.082120	538.720830	63.057200	-56.474800	613.934880	1388.588870	48.825090	522.852540	1462.751830	266.692170	539.413390	1506.753420	-149.909100	549.141780	1255.284670	301.915130	549.841250	1267.207280	-192.596210	516.002080	1148.243160	326.546540	495.715060	1175.981450	-232.980350	684.064940	937.110350	307.286680	644.876710	915.628420	355.522520	593.605160	941.879460	-199.355580	549.338200	937.018680	-260.588620	633.875180	38.440800	193.698670	644.084660	47.454150	84.019060	473.165440	95.764600	-126.533820	503.300540	92.176770	-27.040480	657.210510	1647.380980	140.635670	653.900020	1656.411870	1.754270	590.491880	1812.482060	86.231400	
795	13.233000	592.626160	1080.784180	177.438870	592.791200	1075.905520	-82.287360	393.994540	1073.831910	53.926820	561.420960	756.623110	217.143190	620.843080	697.400090	123.441270	552.401060	634.463380	205.273150	621.355470	778.597470	-152.856460	726.489500	772.307680	-102.642070	665.022030	675.776430	-148.521030	481.355590	460.505830	187.037340	558.699890	420.412350	135.810410	490.099210	374.065000	192.059510	643.090580	493.701140	-145.341030	660.228330	425.336790	-94.613210	598.850220	470.581880	-146.495040	393.914180	71.307530	96.066640	538.067380	79.092790	69.372570	526.774900	62.022530	175.709880	681.467100	49.261740	117.285030	370.892430	238.919690	-28.836470	507.270140	140.336270	-18.922730	482.263640	143.491650	-113.531170	582.653020	59.350020	-55.765610	612.807130	1389.054570	49.662860	522.985660	1464.204710	266.945800	536.727050	1506.428100	-149.403690	550.258180	1256.960820	303.606900	543.683350	1267.407230	-193.232010	517.731990	1149.290530	328.137940	488.347780	1176.543460	-232.718890	690.124690	942.573360	305.856960	652.329350	919.659060	354.406040	587.402040	943.090820	-200.770540	541.932980	937.456050	-260.081880	611.629880	39.044450	194.095230	625.193970	47.369760	84.172080	515.374390	86.944860	-126.827810	544.556760	85.355560	-26.716960	653.732600	1647.567140	140.094150	652.806700	1656.471190	0.913220	589.185240	1813.099850	85.234860	
